<svg xmlns="http://www.w3.org/2000/svg" viewBox="0 0 320 180" class="hsa-scene hsa-tr" aria-hidden="true" focusable="false">
<defs>
<radialGradient id="tr-halo" cx=".5" cy=".5" r=".5"><stop offset="0" style="stop-color:var(--hsa-halo,#FFFFFF);stop-opacity:var(--hsa-halo-a,.85)" stop-color="#FFFFFF" stop-opacity=".85"/><stop offset=".6" style="stop-color:var(--hsa-halo,#FFFFFF);stop-opacity:var(--hsa-halo-b,.35)" stop-color="#FFFFFF" stop-opacity=".35"/><stop offset="1" style="stop-color:var(--hsa-halo,#FFFFFF);stop-opacity:0" stop-color="#FFFFFF" stop-opacity="0"/></radialGradient>
<radialGradient id="tr-amb" cx=".5" cy=".5" r=".5"><stop offset="0" style="stop-color:var(--tr-shadow,#5A3A1E);stop-opacity:0.13" stop-color="#5A3A1E" stop-opacity="0.13"/><stop offset="0.6" style="stop-color:var(--tr-shadow,#5A3A1E);stop-opacity:0.05" stop-color="#5A3A1E" stop-opacity="0.05"/><stop offset="1" style="stop-color:var(--tr-shadow,#5A3A1E);stop-opacity:0" stop-color="#5A3A1E" stop-opacity="0"/></radialGradient>
<radialGradient id="tr-contact" cx=".5" cy=".5" r=".5"><stop offset="0" style="stop-color:var(--tr-shadow,#5A3A1E);stop-opacity:0.26" stop-color="#5A3A1E" stop-opacity="0.26"/><stop offset="0.7" style="stop-color:var(--tr-shadow,#5A3A1E);stop-opacity:0.12" stop-color="#5A3A1E" stop-opacity="0.12"/><stop offset="1" style="stop-color:var(--tr-shadow,#5A3A1E);stop-opacity:0" stop-color="#5A3A1E" stop-opacity="0"/></radialGradient>
<linearGradient id="tr-castv" x1="0" y1="0" x2="0" y2="1"><stop offset="0" style="stop-color:var(--tr-shadow,#5A3A1E);stop-opacity:0.16" stop-color="#5A3A1E" stop-opacity="0.16"/><stop offset="1" style="stop-color:var(--tr-shadow,#5A3A1E);stop-opacity:0" stop-color="#5A3A1E" stop-opacity="0"/></linearGradient>
<linearGradient id="tr-a-rimv" x1="0" y1="0" x2="1" y2="0"><stop offset="0" style="stop-color:var(--hsa-gold,#B8924A)" stop-color="#B8924A"/><stop offset="1" style="stop-color:var(--hsa-gold,#B8924A);stop-opacity:0" stop-color="#B8924A" stop-opacity="0"/></linearGradient>
<clipPath id="tr-a-tymp"><path d="M27 75.2L64 58.4L101 75.2z"/></clipPath>
<linearGradient id="tr-a-stone" gradientUnits="userSpaceOnUse" x1="24" y1="0" x2="104" y2="0"><stop offset="0" style="stop-color:var(--tr-stone-hi,#FFFDF8)" stop-color="#FFFDF8"/><stop offset="0.5" style="stop-color:var(--tr-stone,#EFE7D8)" stop-color="#EFE7D8"/><stop offset="1" style="stop-color:var(--tr-stone-lo,#D9CCB4)" stop-color="#D9CCB4"/></linearGradient><linearGradient id="tr-b-stone" gradientUnits="userSpaceOnUse" x1="216" y1="0" x2="296" y2="0"><stop offset="0" style="stop-color:var(--tr-stone-hi,#FFFDF8)" stop-color="#FFFDF8"/><stop offset="0.5" style="stop-color:var(--tr-stone,#EFE7D8)" stop-color="#EFE7D8"/><stop offset="1" style="stop-color:var(--tr-stone-lo,#D9CCB4)" stop-color="#D9CCB4"/></linearGradient><linearGradient id="tr-a-rim" gradientUnits="userSpaceOnUse" x1="24" y1="0" x2="104" y2="0"><stop offset="0" style="stop-color:var(--hsa-gold,#B8924A);stop-opacity:var(--tr-rim-op,0)" stop-color="#B8924A" stop-opacity="0"/><stop offset=".55" style="stop-color:var(--hsa-gold,#B8924A);stop-opacity:var(--tr-rim-mid,0)" stop-color="#B8924A" stop-opacity="0"/><stop offset="1" style="stop-color:var(--hsa-gold,#B8924A);stop-opacity:0" stop-color="#B8924A" stop-opacity="0"/></linearGradient><linearGradient id="tr-b-rim" gradientUnits="userSpaceOnUse" x1="216" y1="0" x2="296" y2="0"><stop offset="0" style="stop-color:var(--hsa-gold,#B8924A);stop-opacity:var(--tr-rim-op,0)" stop-color="#B8924A" stop-opacity="0"/><stop offset=".55" style="stop-color:var(--hsa-gold,#B8924A);stop-opacity:var(--tr-rim-mid,0)" stop-color="#B8924A" stop-opacity="0"/><stop offset="1" style="stop-color:var(--hsa-gold,#B8924A);stop-opacity:0" stop-color="#B8924A" stop-opacity="0"/></linearGradient>
<linearGradient id="tr-wall" x1="0" y1="0" x2="1" y2="0"><stop offset="0" style="stop-color:var(--tr-wall-hi,#E6DCC8)" stop-color="#E6DCC8"/><stop offset="0.5" style="stop-color:var(--tr-wall,#DDD1BB)" stop-color="#DDD1BB"/><stop offset="1" style="stop-color:var(--tr-wall-lo,#CDBFA5)" stop-color="#CDBFA5"/></linearGradient>
<linearGradient id="tr-col" x1="0" y1="0" x2="1" y2="0"><stop offset="0" style="stop-color:var(--tr-stone,#EFE7D8)" stop-color="#EFE7D8"/><stop offset="0.32" style="stop-color:var(--tr-stone-hi,#FFFDF8)" stop-color="#FFFDF8"/><stop offset="1" style="stop-color:var(--tr-stone-lo,#D9CCB4)" stop-color="#D9CCB4"/></linearGradient>
<linearGradient id="tr-win" x1="0" y1="0" x2="0" y2="1"><stop offset="0" style="stop-color:var(--tr-win-lo,#CDBFA5)" stop-color="#CDBFA5"/><stop offset="0.45" style="stop-color:var(--tr-win,#DED3BE)" stop-color="#DED3BE"/><stop offset="1" style="stop-color:var(--tr-win-hi,#E9E0CF)" stop-color="#E9E0CF"/></linearGradient>
<linearGradient id="tr-door" x1="0" y1="0" x2="1" y2="1"><stop offset="0" style="stop-color:var(--tr-door-hi,#C9B48F)" stop-color="#C9B48F"/><stop offset="0.5" style="stop-color:var(--tr-door,#B49C74)" stop-color="#B49C74"/><stop offset="1" style="stop-color:var(--tr-door-lo,#9E845B)" stop-color="#9E845B"/></linearGradient>
<radialGradient id="tr-dome" cx=".34" cy=".3" r=".85"><stop offset="0" style="stop-color:var(--tr-dome-hi,#FFFDF8)" stop-color="#FFFDF8"/><stop offset="0.5" style="stop-color:var(--tr-dome,#F2EADB)" stop-color="#F2EADB"/><stop offset="1" style="stop-color:var(--tr-dome-lo,#D6C8AE)" stop-color="#D6C8AE"/></radialGradient>
<radialGradient id="tr-coinbody" cx=".36" cy=".3" r=".75"><stop offset="0" style="stop-color:var(--tr-coin-hi,#F6E4B0)" stop-color="#F6E4B0"/><stop offset="0.6" style="stop-color:var(--tr-coin,#D6AE5E)" stop-color="#D6AE5E"/><stop offset="1" style="stop-color:var(--tr-coin-lo,#A8843F)" stop-color="#A8843F"/></radialGradient>
<radialGradient id="tr-coinhalo" cx=".5" cy=".5" r=".5"><stop offset="0" style="stop-color:var(--tr-glow,#E2C27E);stop-opacity:var(--tr-halo-a,.34)" stop-color="#E2C27E" stop-opacity=".34"/><stop offset=".55" style="stop-color:var(--tr-glow,#E2C27E);stop-opacity:var(--tr-halo-b,.14)" stop-color="#E2C27E" stop-opacity=".14"/><stop offset="1" style="stop-color:var(--tr-glow,#E2C27E);stop-opacity:0" stop-color="#E2C27E" stop-opacity="0"/></radialGradient>
<radialGradient id="tr-coinamb" cx=".5" cy=".5" r=".5"><stop offset="0" style="stop-color:var(--tr-shadow,#5A3A1E);stop-opacity:0.14" stop-color="#5A3A1E" stop-opacity="0.14"/><stop offset="1" style="stop-color:var(--tr-shadow,#5A3A1E);stop-opacity:0" stop-color="#5A3A1E" stop-opacity="0"/></radialGradient>
<linearGradient id="tr-ground" gradientUnits="userSpaceOnUse" x1="24" y1="0" x2="296" y2="0"><stop offset="0" style="stop-color:var(--tr-ground,#6B4E23);stop-opacity:0" stop-color="#6B4E23" stop-opacity="0"/><stop offset=".5" style="stop-color:var(--tr-ground,#6B4E23);stop-opacity:var(--tr-ground-a,.18)" stop-color="#6B4E23" stop-opacity=".18"/><stop offset="1" style="stop-color:var(--tr-ground,#6B4E23);stop-opacity:0" stop-color="#6B4E23" stop-opacity="0"/></linearGradient>
<linearGradient id="tr-routeg" gradientUnits="userSpaceOnUse" x1="82.9" y1="0" x2="221.4" y2="0"><stop offset="0" style="stop-color:var(--tr-route,#A88654);stop-opacity:0" stop-color="#A88654" stop-opacity="0"/><stop offset=".07" style="stop-color:var(--tr-route,#A88654);stop-opacity:var(--tr-route-a,.8)" stop-color="#A88654" stop-opacity=".8"/><stop offset=".93" style="stop-color:var(--tr-route,#A88654);stop-opacity:var(--tr-route-a,.8)" stop-color="#A88654" stop-opacity=".8"/><stop offset="1" style="stop-color:var(--tr-route,#A88654);stop-opacity:0" stop-color="#A88654" stop-opacity="0"/></linearGradient>
<mask id="tr-route-mask" maskUnits="userSpaceOnUse" x="0" y="0" width="320" height="180"><rect width="320" height="180" fill="#fff"/><path class="tr-mask-path" d="M82 65.5C94.8 44.2 119 22 156 22C180 22 218 63.4 244 77.4" fill="none" stroke="#000" stroke-width="2.4" stroke-linecap="round" stroke-dasharray="0 177.1 52.1 625.1" stroke-dashoffset="139.51"/></mask>
</defs>
<g class="tr-backdrop">
<ellipse cx="160" cy="92" rx="150" ry="80" fill="url(#tr-halo)"/>
<path d="M24 152.5H296" fill="none" stroke="url(#tr-ground)" stroke-width=".6"/>
</g>
<g class="tr-bank tr-bank--origen"><g transform="translate(5.6 2.4) scale(1.1)"><ellipse cx="70" cy="136.4" rx="50" ry="5.2" fill="url(#tr-amb)"/><ellipse cx="65.6" cy="136.1" rx="42" ry="1.5" fill="url(#tr-contact)"/><rect x="24" y="130" width="80" height="6" fill="url(#tr-a-stone)"/><path d="M24 130h80" fill="none" style="stroke:var(--tr-line,#B9A684)" stroke-width=".5" stroke="#B9A684"/><rect x="27" y="126.4" width="74" height="3.6" fill="url(#tr-a-stone)"/><rect x="28.4" y="130" width="74" height="1" style="fill:var(--tr-shadow,#5A3A1E);fill-opacity:0.1" fill="#5A3A1E" fill-opacity="0.1"/><path d="M27 126.4h74" fill="none" style="stroke:var(--tr-line,#B9A684)" stroke-width=".5" stroke="#B9A684"/><rect x="30" y="123" width="68" height="3.4" fill="url(#tr-a-stone)"/><rect x="31.4" y="126.4" width="68" height="1" style="fill:var(--tr-shadow,#5A3A1E);fill-opacity:0.1" fill="#5A3A1E" fill-opacity="0.1"/><path d="M30 123h68" fill="none" style="stroke:var(--tr-line,#B9A684)" stroke-width=".5" stroke="#B9A684"/><rect x="34" y="85.6" width="60" height="37.4" fill="url(#tr-wall)"/><rect x="34" y="85.6" width="60" height="4" fill="url(#tr-castv)"/><path d="M43.8 110V98.2a3.2 3.2 0 0 1 6.4 0V110z" fill="url(#tr-win)" style="stroke:var(--tr-line,#B9A684)" stroke-width=".5" stroke="#B9A684"/><path d="M77.8 110V98.2a3.2 3.2 0 0 1 6.4 0V110z" fill="url(#tr-win)" style="stroke:var(--tr-line,#B9A684)" stroke-width=".5" stroke="#B9A684"/><path d="M58.8 123V109.2a5.2 5.2 0 0 1 10.4 0V123z" fill="url(#tr-door)"/><rect x="42.2" y="88" width="2.8" height="32.2" style="fill:var(--tr-shadow,#5A3A1E);fill-opacity:0.09" fill="#5A3A1E" fill-opacity="0.09"/><rect x="58.2" y="88" width="2.8" height="32.2" style="fill:var(--tr-shadow,#5A3A1E);fill-opacity:0.09" fill="#5A3A1E" fill-opacity="0.09"/><rect x="76.2" y="88" width="2.8" height="32.2" style="fill:var(--tr-shadow,#5A3A1E);fill-opacity:0.09" fill="#5A3A1E" fill-opacity="0.09"/><rect x="92.2" y="88" width="1.7999999999999998" height="32.2" style="fill:var(--tr-shadow,#5A3A1E);fill-opacity:0.09" fill="#5A3A1E" fill-opacity="0.09"/><rect x="35.8" y="87.6" width="6.4" height="32.6" fill="url(#tr-col)"/><rect x="41.2" y="87.6" width="1" height="32.6" style="fill:var(--tr-shadow,#5A3A1E);fill-opacity:0.06" fill="#5A3A1E" fill-opacity="0.06"/><rect x="34.6" y="85.6" width="8.8" height="2" fill="url(#tr-a-stone)"/><rect x="35.8" y="87.6" width="6.4" height=".7" style="fill:var(--tr-shadow,#5A3A1E);fill-opacity:0.12" fill="#5A3A1E" fill-opacity="0.12"/><rect x="34.8" y="120.2" width="8.4" height="2.8" fill="url(#tr-a-stone)"/><rect x="34.8" y="120.2" width="8.4" height=".6" fill="url(#tr-a-rimv)" style="fill-opacity:var(--tr-rim-op,0)" fill-opacity="0"/><rect x="51.8" y="87.6" width="6.4" height="32.6" fill="url(#tr-col)"/><rect x="57.2" y="87.6" width="1" height="32.6" style="fill:var(--tr-shadow,#5A3A1E);fill-opacity:0.06" fill="#5A3A1E" fill-opacity="0.06"/><rect x="50.6" y="85.6" width="8.8" height="2" fill="url(#tr-a-stone)"/><rect x="51.8" y="87.6" width="6.4" height=".7" style="fill:var(--tr-shadow,#5A3A1E);fill-opacity:0.12" fill="#5A3A1E" fill-opacity="0.12"/><rect x="50.8" y="120.2" width="8.4" height="2.8" fill="url(#tr-a-stone)"/><rect x="50.8" y="120.2" width="8.4" height=".6" fill="url(#tr-a-rimv)" style="fill-opacity:var(--tr-rim-op,0)" fill-opacity="0"/><rect x="69.8" y="87.6" width="6.4" height="32.6" fill="url(#tr-col)"/><rect x="75.2" y="87.6" width="1" height="32.6" style="fill:var(--tr-shadow,#5A3A1E);fill-opacity:0.06" fill="#5A3A1E" fill-opacity="0.06"/><rect x="68.6" y="85.6" width="8.8" height="2" fill="url(#tr-a-stone)"/><rect x="69.8" y="87.6" width="6.4" height=".7" style="fill:var(--tr-shadow,#5A3A1E);fill-opacity:0.12" fill="#5A3A1E" fill-opacity="0.12"/><rect x="68.8" y="120.2" width="8.4" height="2.8" fill="url(#tr-a-stone)"/><rect x="68.8" y="120.2" width="8.4" height=".6" fill="url(#tr-a-rimv)" style="fill-opacity:var(--tr-rim-op,0)" fill-opacity="0"/><rect x="85.8" y="87.6" width="6.4" height="32.6" fill="url(#tr-col)"/><rect x="91.2" y="87.6" width="1" height="32.6" style="fill:var(--tr-shadow,#5A3A1E);fill-opacity:0.06" fill="#5A3A1E" fill-opacity="0.06"/><rect x="84.6" y="85.6" width="8.8" height="2" fill="url(#tr-a-stone)"/><rect x="85.8" y="87.6" width="6.4" height=".7" style="fill:var(--tr-shadow,#5A3A1E);fill-opacity:0.12" fill="#5A3A1E" fill-opacity="0.12"/><rect x="84.8" y="120.2" width="8.4" height="2.8" fill="url(#tr-a-stone)"/><rect x="84.8" y="120.2" width="8.4" height=".6" fill="url(#tr-a-rimv)" style="fill-opacity:var(--tr-rim-op,0)" fill-opacity="0"/><rect x="31" y="80.6" width="66" height="5" fill="url(#tr-a-stone)"/><rect x="34" y="85.6" width="60" height=".8" style="fill:var(--tr-shadow,#5A3A1E);fill-opacity:0.13" fill="#5A3A1E" fill-opacity="0.13"/><rect x="29.5" y="77.6" width="69" height="3" fill="url(#tr-a-stone)"/><rect x="31" y="80.6" width="66" height=".8" style="fill:var(--tr-shadow,#5A3A1E);fill-opacity:0.1" fill="#5A3A1E" fill-opacity="0.1"/><path d="M32 78.5h2.5v1.7h-2.5zM39.8 78.5h2.5v1.7h-2.5zM47.5 78.5h2.5v1.7h-2.5zM55.3 78.5h2.5v1.7h-2.5zM63 78.5h2.5v1.7h-2.5zM70.8 78.5h2.5v1.7h-2.5zM78.5 78.5h2.5v1.7h-2.5zM86.3 78.5h2.5v1.7h-2.5zM94 78.5h2.5v1.7h-2.5z" style="fill:var(--tr-dentil,#B9A684);fill-opacity:.6" fill="#B9A684" fill-opacity=".6"/><rect x="29.5" y="77.8" width="69" height=".9" style="fill:var(--tr-shadow,#5A3A1E);fill-opacity:0.11" fill="#5A3A1E" fill-opacity="0.11"/><rect x="27" y="75.2" width="74" height="2.6" fill="url(#tr-a-stone)"/><path d="M27 75.2L64 58.4L101 75.2z" fill="url(#tr-a-stone)"/><path d="M27 75.2L64 58.4L101 75.2" fill="none" style="stroke:var(--tr-shadow,#5A3A1E);stroke-opacity:.08" stroke-width="2" transform="translate(.5 .9)" clip-path="url(#tr-a-tymp)" stroke="#5A3A1E" stroke-opacity=".08"/><path d="M24 136V130H27V126.4H30V123H34V85.6H31V80.6H29.5V77.8H27V75.2L64 58.4L101 75.2V77.8H98.5V80.6H97V85.6H94V123H98V126.4H101V130H104V136z" fill="none" style="stroke:var(--tr-silhouette,#B09A70);stroke-opacity:var(--tr-sil-a,1)" stroke-width=".8" stroke-linejoin="round" stroke="#B09A70" stroke-opacity="1"/><path d="M24.3 130.3h79.4" stroke="url(#tr-a-rim)" fill="none" stroke-width=".5"/><path d="M27.3 126.7h73.4" stroke="url(#tr-a-rim)" fill="none" stroke-width=".5"/><path d="M30.3 123.3h67.4" stroke="url(#tr-a-rim)" fill="none" stroke-width=".5"/><path d="M58.8 123V109.2a5.2 5.2 0 0 1 5.2 -5.2" style="stroke:var(--hsa-gold,#B8924A);stroke-opacity:var(--tr-door-rim,0)" fill="none" stroke-width=".5" stroke="#B8924A" stroke-opacity="0"/><path d="M64 104a5.2 5.2 0 0 1 5.2 5.2" style="stroke:var(--hsa-gold,#B8924A);stroke-opacity:var(--tr-door-rim-r,0)" fill="none" stroke-width=".5" stroke="#B8924A" stroke-opacity="0"/><path d="M36 88.6V119.4" style="stroke:var(--hsa-gold,#B8924A);stroke-opacity:var(--tr-rim-op,0)" fill="none" stroke-width=".5" stroke-linecap="round" stroke="#B8924A" stroke-opacity="0"/><path d="M52 88.6V119.4" style="stroke:var(--hsa-gold,#B8924A);stroke-opacity:var(--tr-rim-op,0)" fill="none" stroke-width=".5" stroke-linecap="round" stroke="#B8924A" stroke-opacity="0"/><path d="M70 88.6V119.4" style="stroke:var(--hsa-gold,#B8924A);stroke-opacity:var(--tr-rim-op,0)" fill="none" stroke-width=".5" stroke-linecap="round" stroke="#B8924A" stroke-opacity="0"/><path d="M86 88.6V119.4" style="stroke:var(--hsa-gold,#B8924A);stroke-opacity:var(--tr-rim-op,0)" fill="none" stroke-width=".5" stroke-linecap="round" stroke="#B8924A" stroke-opacity="0"/><path d="M27.299999999999997 75.5h73.4" stroke="url(#tr-a-rim)" fill="none" stroke-width=".5"/><path d="M25.799999999999997 75.6L64 57.6L102.2 75.6" fill="none" style="stroke:var(--tr-roof,#9C7B47)" stroke-width="1" stroke-linejoin="round" stroke-linecap="round" stroke="#9C7B47"/><path d="M26.6 74.6L63.4 57.3" style="stroke:var(--hsa-gold,#B8924A);stroke-opacity:var(--tr-rim-op,0)" fill="none" stroke-width=".5" stroke-linecap="round" stroke="#B8924A" stroke-opacity="0"/><circle cx="64" cy="68.2" r="4.6" style="fill:var(--tr-med,#FBF6EA);stroke:var(--hsa-gold,#B8924A);stroke-opacity:var(--tr-med-ring,1)" stroke-width=".6" fill="#FBF6EA" stroke="#B8924A" stroke-opacity="1"/><path d="M66.2 67.9c0 .2 0 .3 0 .5 0 .1 0 .3-.1.4 0 .2-.1.3-.1.4-.1.2-.2.3-.2.4-.1.2-.2.3-.3.4-.1.1-.2.2-.3.3-.1.1-.2.2-.3.2-.1.1-.3.2-.4.2-.1 0-.2.1-.4.1-.1 0-.2 0-.3 0-.2 0-.3 0-.4 0-.2 0-.3-.1-.4-.1-.1 0-.3-.1-.4-.2-.1 0-.2-.1-.3-.2-.1-.1-.2-.2-.3-.3-.1-.1-.2-.2-.3-.4 0-.1-.1-.2-.2-.4 0-.1-.1-.2-.1-.4-.1-.1-.1-.3-.1-.4 0-.2 0-.3 0-.5 0-.2 0-.3 0-.5 0-.1 0-.3.1-.4 0-.2.1-.3.1-.4 .1-.2.2-.3.2-.4 .1-.2.2-.3.3-.4 .1-.1.2-.2.3-.3 .1-.1.2-.2.3-.2 .1-.1.3-.2.4-.2 .1 0 .2-.1.4-.1 .1 0 .2 0 .4 0 .1 0 .2 0 .3 0 .2 0 .3.1.4.1 .1 0 .3.1.4.2 .1 0 .2.1.3.2 .1.1.2.2.3.3 .1.1.2.2.3.4 0 .1.1.2.2.4 0 .1.1.2.1.4 .1.1.1.3.1.4 0 .2 0 .3 0 .5zM65.5 67.5c0-.2 0-.2 0-.4-.1-.2-.2-.5-.3-.7-.1-.2-.2-.4-.3-.5-.2-.2-.3-.3-.5-.4-.1-.1-.4-.1-.5-.1-.1 0-.1 0-.2 0-.2.1-.4.2-.5.3-.1 0-.2 0-.2.2-.1.1-.3.4-.4.5-.1.2-.1.2-.1.3-.1.2-.2.5-.2.8 0 .2 0 .5 0 .7 0 .3.1.6.2.8 0 .1 0 .2.1.3 .1.1.2.4.4.5 .1.2.2.3.4.4 .2.1.4.1.5.1 .1 0 .1 0 .3 0 .1-.1.3-.2.5-.3 .1 0 .1 0 .2-.2 .1-.1.2-.3.3-.5 .1-.2.2-.5.3-.7 0-.2 0-.2 0-.4 0-.2 0-.5 0-.7z" fill-rule="evenodd" style="fill:var(--tr-med-ink,#8E6B3A)" fill="#8E6B3A"/><path d="M63.4 70.1c0 .1.1.2.2.4 .1.1.3.3.5.5 .2.2.5.4.7.5 .3.2.5.3.6.3 .2.1.2.1.3.1 .1 0 .2 0 .3 0 .1 0 .2 0 .3 0 .1-.1.3-.1.4-.2 .1 0 .1 0 .1-.1 0 0 .1 0 0-.1-.2 0-.6 0-.8 0-.1 0 0 0-.2-.1-.1 0-.3-.1-.6-.4-.4-.2-1.2-.8-1.5-1-.3-.1-.1 0-.2 0 0 0-.1 0-.1.1z" style="fill:var(--tr-med-ink,#8E6B3A)" fill="#8E6B3A"/></g></g>
<g class="tr-bank tr-bank--destino"><g transform="translate(-37.6 2.4) scale(1.1)"><ellipse cx="262" cy="136.4" rx="50" ry="5.2" fill="url(#tr-amb)"/><ellipse cx="257.6" cy="136.1" rx="42" ry="1.5" fill="url(#tr-contact)"/><rect x="216" y="130" width="80" height="6" fill="url(#tr-b-stone)"/><path d="M216 130h80" fill="none" style="stroke:var(--tr-line,#B9A684)" stroke-width=".5" stroke="#B9A684"/><rect x="219" y="126.4" width="74" height="3.6" fill="url(#tr-b-stone)"/><rect x="220.4" y="130" width="74" height="1" style="fill:var(--tr-shadow,#5A3A1E);fill-opacity:0.1" fill="#5A3A1E" fill-opacity="0.1"/><path d="M219 126.4h74" fill="none" style="stroke:var(--tr-line,#B9A684)" stroke-width=".5" stroke="#B9A684"/><rect x="222" y="123" width="68" height="3.4" fill="url(#tr-b-stone)"/><rect x="223.4" y="126.4" width="68" height="1" style="fill:var(--tr-shadow,#5A3A1E);fill-opacity:0.1" fill="#5A3A1E" fill-opacity="0.1"/><path d="M222 123h68" fill="none" style="stroke:var(--tr-line,#B9A684)" stroke-width=".5" stroke="#B9A684"/><rect x="226" y="85.6" width="60" height="37.4" fill="url(#tr-wall)"/><rect x="226" y="85.6" width="60" height="4" fill="url(#tr-castv)"/><path d="M235.8 110V98.2a3.2 3.2 0 0 1 6.4 0V110z" fill="url(#tr-win)" style="stroke:var(--tr-line,#B9A684)" stroke-width=".5" stroke="#B9A684"/><path d="M269.8 110V98.2a3.2 3.2 0 0 1 6.4 0V110z" fill="url(#tr-win)" style="stroke:var(--tr-line,#B9A684)" stroke-width=".5" stroke="#B9A684"/><path d="M250.8 123V109.2a5.2 5.2 0 0 1 10.4 0V123z" fill="url(#tr-door)"/><rect x="234.2" y="88" width="2.8" height="32.2" style="fill:var(--tr-shadow,#5A3A1E);fill-opacity:0.09" fill="#5A3A1E" fill-opacity="0.09"/><rect x="250.2" y="88" width="2.8" height="32.2" style="fill:var(--tr-shadow,#5A3A1E);fill-opacity:0.09" fill="#5A3A1E" fill-opacity="0.09"/><rect x="268.2" y="88" width="2.8" height="32.2" style="fill:var(--tr-shadow,#5A3A1E);fill-opacity:0.09" fill="#5A3A1E" fill-opacity="0.09"/><rect x="284.2" y="88" width="1.7999999999999998" height="32.2" style="fill:var(--tr-shadow,#5A3A1E);fill-opacity:0.09" fill="#5A3A1E" fill-opacity="0.09"/><rect x="227.8" y="87.6" width="6.4" height="32.6" fill="url(#tr-col)"/><rect x="233.2" y="87.6" width="1" height="32.6" style="fill:var(--tr-shadow,#5A3A1E);fill-opacity:0.06" fill="#5A3A1E" fill-opacity="0.06"/><rect x="226.6" y="85.6" width="8.8" height="2" fill="url(#tr-b-stone)"/><rect x="227.8" y="87.6" width="6.4" height=".7" style="fill:var(--tr-shadow,#5A3A1E);fill-opacity:0.12" fill="#5A3A1E" fill-opacity="0.12"/><rect x="226.8" y="120.2" width="8.4" height="2.8" fill="url(#tr-b-stone)"/><rect x="226.8" y="120.2" width="8.4" height=".6" fill="url(#tr-a-rimv)" style="fill-opacity:var(--tr-rim-op,0)" fill-opacity="0"/><rect x="243.8" y="87.6" width="6.4" height="32.6" fill="url(#tr-col)"/><rect x="249.2" y="87.6" width="1" height="32.6" style="fill:var(--tr-shadow,#5A3A1E);fill-opacity:0.06" fill="#5A3A1E" fill-opacity="0.06"/><rect x="242.6" y="85.6" width="8.8" height="2" fill="url(#tr-b-stone)"/><rect x="243.8" y="87.6" width="6.4" height=".7" style="fill:var(--tr-shadow,#5A3A1E);fill-opacity:0.12" fill="#5A3A1E" fill-opacity="0.12"/><rect x="242.8" y="120.2" width="8.4" height="2.8" fill="url(#tr-b-stone)"/><rect x="242.8" y="120.2" width="8.4" height=".6" fill="url(#tr-a-rimv)" style="fill-opacity:var(--tr-rim-op,0)" fill-opacity="0"/><rect x="261.8" y="87.6" width="6.4" height="32.6" fill="url(#tr-col)"/><rect x="267.2" y="87.6" width="1" height="32.6" style="fill:var(--tr-shadow,#5A3A1E);fill-opacity:0.06" fill="#5A3A1E" fill-opacity="0.06"/><rect x="260.6" y="85.6" width="8.8" height="2" fill="url(#tr-b-stone)"/><rect x="261.8" y="87.6" width="6.4" height=".7" style="fill:var(--tr-shadow,#5A3A1E);fill-opacity:0.12" fill="#5A3A1E" fill-opacity="0.12"/><rect x="260.8" y="120.2" width="8.4" height="2.8" fill="url(#tr-b-stone)"/><rect x="260.8" y="120.2" width="8.4" height=".6" fill="url(#tr-a-rimv)" style="fill-opacity:var(--tr-rim-op,0)" fill-opacity="0"/><rect x="277.8" y="87.6" width="6.4" height="32.6" fill="url(#tr-col)"/><rect x="283.2" y="87.6" width="1" height="32.6" style="fill:var(--tr-shadow,#5A3A1E);fill-opacity:0.06" fill="#5A3A1E" fill-opacity="0.06"/><rect x="276.6" y="85.6" width="8.8" height="2" fill="url(#tr-b-stone)"/><rect x="277.8" y="87.6" width="6.4" height=".7" style="fill:var(--tr-shadow,#5A3A1E);fill-opacity:0.12" fill="#5A3A1E" fill-opacity="0.12"/><rect x="276.8" y="120.2" width="8.4" height="2.8" fill="url(#tr-b-stone)"/><rect x="276.8" y="120.2" width="8.4" height=".6" fill="url(#tr-a-rimv)" style="fill-opacity:var(--tr-rim-op,0)" fill-opacity="0"/><rect x="223" y="80.6" width="66" height="5" fill="url(#tr-b-stone)"/><rect x="226" y="85.6" width="60" height=".8" style="fill:var(--tr-shadow,#5A3A1E);fill-opacity:0.13" fill="#5A3A1E" fill-opacity="0.13"/><rect x="221.5" y="77.6" width="69" height="3" fill="url(#tr-b-stone)"/><rect x="223" y="80.6" width="66" height=".8" style="fill:var(--tr-shadow,#5A3A1E);fill-opacity:0.1" fill="#5A3A1E" fill-opacity="0.1"/><path d="M224 78.5h2.5v1.7h-2.5zM231.8 78.5h2.5v1.7h-2.5zM239.5 78.5h2.5v1.7h-2.5zM247.3 78.5h2.5v1.7h-2.5zM255 78.5h2.5v1.7h-2.5zM262.8 78.5h2.5v1.7h-2.5zM270.5 78.5h2.5v1.7h-2.5zM278.3 78.5h2.5v1.7h-2.5zM286 78.5h2.5v1.7h-2.5z" style="fill:var(--tr-dentil,#B9A684);fill-opacity:.6" fill="#B9A684" fill-opacity=".6"/><rect x="221.5" y="77.8" width="69" height=".9" style="fill:var(--tr-shadow,#5A3A1E);fill-opacity:0.11" fill="#5A3A1E" fill-opacity="0.11"/><rect x="219" y="75.2" width="74" height="2.6" fill="url(#tr-b-stone)"/><rect x="238.5" y="61.5" width="35" height="11.9" fill="url(#tr-col)"/><rect x="238.5" y="61.5" width="35" height="1.2" style="fill:var(--tr-shadow,#5A3A1E);fill-opacity:0.12" fill="#5A3A1E" fill-opacity="0.12"/><rect x="235" y="73.4" width="42" height="1.8" fill="url(#tr-b-stone)"/><path d="M235 73.4h42" fill="none" style="stroke:var(--tr-line,#B9A684)" stroke-width=".5" stroke="#B9A684"/><rect x="219" y="75.2" width="74" height=".7" style="fill:var(--tr-shadow,#5A3A1E);fill-opacity:0.1" fill="#5A3A1E" fill-opacity="0.1"/><path d="M239 59.7A17 15.5 0 0 1 273 59.7z" fill="url(#tr-dome)"/><path d="M245.5 59.7A10.5 15.5 0 0 1 256 44.2M250.9 59.7A5.1 15.5 0 0 1 256 44.2M261.1 59.7A5.1 15.5 0 0 0 256 44.2M266.5 59.7A10.5 15.5 0 0 0 256 44.2M256 59.7V44.2" fill="none" style="stroke:var(--tr-rib,#B8924A);stroke-opacity:var(--tr-rib-op,.55)" stroke-width=".5" stroke="#B8924A" stroke-opacity=".55"/><rect x="237.6" y="59.5" width="36.8" height="2" fill="url(#tr-b-stone)"/><path d="M216 136V130H219V126.4H222V123H226V85.6H223V80.6H221.5V77.8H219V75.2H235V73.4H238.5V61.5H237.6V59.5H239V59.7A17 15.5 0 0 1 273 59.7V59.5H274.4V61.5H273.5V73.4H277V75.2H293V77.8H290.5V80.6H289V85.6H286V123H290V126.4H293V130H296V136z" fill="none" style="stroke:var(--tr-silhouette,#B09A70);stroke-opacity:var(--tr-sil-a,1)" stroke-width=".8" stroke-linejoin="round" stroke="#B09A70" stroke-opacity="1"/><path d="M216.3 130.3h79.4" stroke="url(#tr-b-rim)" fill="none" stroke-width=".5"/><path d="M219.3 126.7h73.4" stroke="url(#tr-b-rim)" fill="none" stroke-width=".5"/><path d="M222.3 123.3h67.4" stroke="url(#tr-b-rim)" fill="none" stroke-width=".5"/><path d="M250.8 123V109.2a5.2 5.2 0 0 1 5.2 -5.2" style="stroke:var(--hsa-gold,#B8924A);stroke-opacity:var(--tr-door-rim,0)" fill="none" stroke-width=".5" stroke="#B8924A" stroke-opacity="0"/><path d="M256 104a5.2 5.2 0 0 1 5.2 5.2" style="stroke:var(--hsa-gold,#B8924A);stroke-opacity:var(--tr-door-rim-r,0)" fill="none" stroke-width=".5" stroke="#B8924A" stroke-opacity="0"/><path d="M228 88.6V119.4" style="stroke:var(--hsa-gold,#B8924A);stroke-opacity:var(--tr-rim-op,0)" fill="none" stroke-width=".5" stroke-linecap="round" stroke="#B8924A" stroke-opacity="0"/><path d="M244 88.6V119.4" style="stroke:var(--hsa-gold,#B8924A);stroke-opacity:var(--tr-rim-op,0)" fill="none" stroke-width=".5" stroke-linecap="round" stroke="#B8924A" stroke-opacity="0"/><path d="M262 88.6V119.4" style="stroke:var(--hsa-gold,#B8924A);stroke-opacity:var(--tr-rim-op,0)" fill="none" stroke-width=".5" stroke-linecap="round" stroke="#B8924A" stroke-opacity="0"/><path d="M278 88.6V119.4" style="stroke:var(--hsa-gold,#B8924A);stroke-opacity:var(--tr-rim-op,0)" fill="none" stroke-width=".5" stroke-linecap="round" stroke="#B8924A" stroke-opacity="0"/><path d="M219.3 75.5h73.4" stroke="url(#tr-b-rim)" fill="none" stroke-width=".5"/><path d="M238.7 62.9V73" style="stroke:var(--hsa-gold,#B8924A);stroke-opacity:var(--tr-rim-op,0)" fill="none" stroke-width=".5" stroke-linecap="round" stroke="#B8924A" stroke-opacity="0"/><path d="M239.1 58.3A17 15.5 0 0 1 254.1 44.3" style="stroke:var(--tr-dome-rim,#B8924A);stroke-opacity:var(--tr-dome-rim-a,0)" fill="none" stroke-width=".6" stroke-linecap="round" stroke="#B8924A" stroke-opacity="0"/><rect x="253.2" y="40.8" width="5.6" height="3.6" fill="url(#tr-b-stone)"/><path d="M253.2 40.8v3.6M258.8 40.8v3.6" fill="none" style="stroke:var(--tr-silhouette,#B09A70);stroke-opacity:var(--tr-sil-a,1)" stroke-width=".6" stroke="#B09A70" stroke-opacity="1"/><path d="M252.6 41A3.4 2.6 0 0 1 259.4 41z" style="fill:var(--hsa-gold,#B8924A)" fill="#B8924A"/><circle cx="256" cy="37.6" r="1.1" style="fill:var(--hsa-gold,#B8924A)" fill="#B8924A"/><circle cx="256" cy="68.2" r="4.6" style="fill:var(--tr-med,#FBF6EA);stroke:var(--hsa-gold,#B8924A);stroke-opacity:var(--tr-med-ring,1)" stroke-width=".6" fill="#FBF6EA" stroke="#B8924A" stroke-opacity="1"/><path d="M258.2 67.9c0 .2 0 .3 0 .5 0 .1 0 .3-.1.4 0 .2-.1.3-.1.4-.1.2-.2.3-.2.4-.1.2-.2.3-.3.4-.1.1-.2.2-.3.3-.1.1-.2.2-.3.2-.1.1-.3.2-.4.2-.1 0-.2.1-.4.1-.1 0-.2 0-.3 0-.2 0-.3 0-.4 0-.2 0-.3-.1-.4-.1-.1 0-.3-.1-.4-.2-.1 0-.2-.1-.3-.2-.1-.1-.2-.2-.3-.3-.1-.1-.2-.2-.3-.4 0-.1-.1-.2-.2-.4 0-.1-.1-.2-.1-.4-.1-.1-.1-.3-.1-.4 0-.2 0-.3 0-.5 0-.2 0-.3 0-.5 0-.1 0-.3.1-.4 0-.2.1-.3.1-.4 .1-.2.2-.3.2-.4 .1-.2.2-.3.3-.4 .1-.1.2-.2.3-.3 .1-.1.2-.2.3-.2 .1-.1.3-.2.4-.2 .1 0 .2-.1.4-.1 .1 0 .2 0 .4 0 .1 0 .2 0 .3 0 .2 0 .3.1.4.1 .1 0 .3.1.4.2 .1 0 .2.1.3.2 .1.1.2.2.3.3 .1.1.2.2.3.4 0 .1.1.2.2.4 0 .1.1.2.1.4 .1.1.1.3.1.4 0 .2 0 .3 0 .5zM257.5 67.5c0-.3-.1-.5-.1-.8-.1-.2-.3-.4-.3-.6-.1-.1-.1-.1-.2-.2-.1-.1-.3-.3-.5-.4-.1-.1-.4-.1-.5-.1-.1 0-.2 0-.2 0-.1 0-.2 0-.3.1-.1.1-.3.2-.4.4-.2.1-.3.3-.4.5-.1.2-.2.5-.2.7-.1.2-.1.6-.1.8 0 .1 0 .2 0 .3 0 .2 0 .2.1.4 0 .2.1.5.2.7 .1.2.2.4.4.5 .1.2.2.3.4.4 .2.1.4.1.5.1 .1 0 .1 0 .3 0 .1-.1.3-.1.5-.3 .1-.1.3-.3.4-.4 .1-.1.1-.2.1-.3 .1-.1.1-.2.2-.3 0-.2.1-.5.1-.8 .1-.2.1-.5 0-.7z" fill-rule="evenodd" style="fill:var(--tr-med-ink,#8E6B3A)" fill="#8E6B3A"/><path d="M255.4 70.1c0 .1.1.2.2.4 .1.1.3.3.5.5 .2.2.5.4.7.5 .3.2.5.3.6.3 .2.1.2.1.3.1 .1 0 .2 0 .3 0 .1 0 .2 0 .3 0 .1-.1.3-.1.4-.2 .1 0 .1 0 .1-.1 0 0 .1 0 0-.1-.2 0-.6 0-.8 0-.1 0 0 0-.2-.1-.1 0-.3-.1-.6-.4-.4-.2-1.2-.8-1.5-1-.3-.1-.1 0-.2 0 0 0-.1 0-.1.1z" style="fill:var(--tr-med-ink,#8E6B3A)" fill="#8E6B3A"/></g></g>
<path class="tr-route" d="M82.9 64c.7-1 2.8-4.2 4.3-6.2 1.4-2.1 3-4 4.6-5.9 1.7-1.9 3.4-3.8 5.2-5.5 1.8-1.8 3.6-3.5 5.6-5.1 1.9-1.6 3.9-3.2 5.9-4.6 2.1-1.4 4.2-2.8 6.4-4 2.2-1.3 4.4-2.4 6.7-3.5 2.3-1 4.7-1.9 7-2.7 2.4-.9 4.8-1.6 7.3-2.2 2.4-.5 4.9-1 7.4-1.4 2.4-.4 5-.6 7.5-.7 2.5-.2 5-.4 7.5-.1 2.5.3 4.9.9 7.3 1.7 2.4.8 4.7 1.9 7 3 2.2 1.1 4.4 2.3 6.6 3.6 2.1 1.3 4.2 2.7 6.3 4.1 2.1 1.4 4.1 2.8 6.2 4.3 2 1.5 4 3 6 4.5 2 1.5 2 1.5 6 4.6 3.9 3.1 14.8 11.7 17.7 14" fill="none" stroke="url(#tr-routeg)" stroke-width="1.1" stroke-dasharray="0 3.6" stroke-linecap="round" mask="url(#tr-route-mask)"/>
<path class="tr-trail tr-trail--1" d="M82 65.5C94.8 44.2 119 22 156 22C180 22 218 63.4 244 77.4" fill="none" style="stroke:var(--tr-trail,#C9A35A);stroke-opacity:0.12" stroke-width="0.8" stroke-linecap="round" stroke-dasharray="0 177.1 52.1 625.1" stroke-dashoffset="139.51" stroke="#C9A35A" stroke-opacity="0.12"/>
<path class="tr-trail tr-trail--2" d="M82 65.5C94.8 44.2 119 22 156 22C180 22 218 63.4 244 77.4" fill="none" style="stroke:var(--tr-trail,#C9A35A);stroke-opacity:0.12" stroke-width="1.16" stroke-linecap="round" stroke-dasharray="0 192.7 36.5 625.1" stroke-dashoffset="139.51" stroke="#C9A35A" stroke-opacity="0.12"/>
<path class="tr-trail tr-trail--3" d="M82 65.5C94.8 44.2 119 22 156 22C180 22 218 63.4 244 77.4" fill="none" style="stroke:var(--tr-trail,#C9A35A);stroke-opacity:0.12" stroke-width="1.52" stroke-linecap="round" stroke-dasharray="0 204.2 25 625.1" stroke-dashoffset="139.51" stroke="#C9A35A" stroke-opacity="0.12"/>
<path class="tr-trail tr-trail--4" d="M82 65.5C94.8 44.2 119 22 156 22C180 22 218 63.4 244 77.4" fill="none" style="stroke:var(--tr-trail,#C9A35A);stroke-opacity:0.12" stroke-width="1.88" stroke-linecap="round" stroke-dasharray="0 212.5 16.7 625.1" stroke-dashoffset="139.51" stroke="#C9A35A" stroke-opacity="0.12"/>
<path class="tr-trail tr-trail--5" d="M82 65.5C94.8 44.2 119 22 156 22C180 22 218 63.4 244 77.4" fill="none" style="stroke:var(--tr-trail,#C9A35A);stroke-opacity:0.12" stroke-width="2.24" stroke-linecap="round" stroke-dasharray="0 218.8 10.4 625.1" stroke-dashoffset="139.51" stroke="#C9A35A" stroke-opacity="0.12"/>
<path class="tr-trail tr-trail--6" d="M82 65.5C94.8 44.2 119 22 156 22C180 22 218 63.4 244 77.4" fill="none" style="stroke:var(--tr-trail,#C9A35A);stroke-opacity:0.12" stroke-width="2.6" stroke-linecap="round" stroke-dasharray="0 223.4 5.8 625.1" stroke-dashoffset="139.51" stroke="#C9A35A" stroke-opacity="0.12"/>
<g class="tr-coin" transform="translate(155.7 22)"><circle r="12.8" fill="url(#tr-coinhalo)"/><g class="tr-coin-sh" opacity=".3"><circle cx="1.6" cy="2.2" r="9.2" fill="url(#tr-coinamb)"/></g><circle class="tr-coin-cs" cx=".5" cy=".7" r="7.6" style="fill:var(--tr-shadow,#5A3A1E);fill-opacity:0.2" opacity="0" fill="#5A3A1E" fill-opacity="0.2"/><circle r="7.5" fill="url(#tr-coinbody)" style="stroke:var(--tr-coin-lo,#A8843F)" stroke-width=".75" stroke="#A8843F"/><circle r="5.6" fill="none" style="stroke:var(--tr-coin-lo,#A8843F);stroke-opacity:.6" stroke-width=".6" stroke="#A8843F" stroke-opacity=".6"/><path d="M2.7-.4c0 .2 0 .4 0 .6 0 .2-.1.4-.1.5-.1.2-.1.4-.2.6-.1.1-.2.3-.3.4 0 .2-.1.3-.3.5-.1.1-.2.2-.3.3-.2.2-.3.3-.4.3-.2.1-.3.2-.5.3-.1 0-.3.1-.4.1-.2 0-.3 0-.5 0-.2 0-.3 0-.5 0-.1 0-.3-.1-.4-.1-.2-.1-.3-.2-.5-.3-.1 0-.3-.1-.4-.3-.1-.1-.2-.2-.4-.3-.1-.2-.2-.3-.3-.5-.1-.1-.1-.3-.2-.4-.1-.2-.1-.4-.2-.6 0-.1-.1-.3-.1-.5 0-.2 0-.4 0-.6 0-.2 0-.3 0-.5 0-.2.1-.4.1-.6 .1-.2.1-.3.2-.5 .1-.2.1-.3.2-.5 .1-.1.2-.3.3-.4 .2-.1.3-.3.4-.4 .1-.1.3-.2.4-.3 .2-.1.3-.1.5-.2 .1 0 .3-.1.4-.1 .2 0 .3-.1.5-.1 .2 0 .3.1.5.1 .1 0 .3.1.4.1 .2.1.3.1.5.2 .1.1.2.2.4.3 .1.1.2.3.3.4 .2.1.3.3.3.4 .1.2.2.3.3.5 .1.2.1.3.2.5 0 .2.1.4.1.6 0 .2 0 .3 0 .5zM1.9-.9c-.1-.2-.1-.2-.1-.5-.1-.2-.2-.5-.3-.8-.1-.2-.3-.5-.4-.7-.2-.1-.2-.1-.3-.2-.1-.1-.2-.1-.3-.2-.1 0-.2-.1-.3-.1-.1 0-.2 0-.3 0-.1 0-.2 0-.3 0-.1 0-.2.1-.3.1-.1.1-.2.1-.3.2-.1.1-.2.1-.3.2-.1.2-.3.5-.4.7-.1.3-.2.6-.3.8-.1.3-.1.3-.1.5 0 .2 0 .7 0 .9 0 .3 0 .3.1.5 .1.2.2.6.3.8 .1.3.3.6.4.7 .1.2.2.2.3.3 .1 0 .2.1.3.1 .1.1.2.1.3.1 .1.1.2.1.3.1 .1 0 .2 0 .3-.1 .1 0 .2 0 .3-.1 .1 0 .2-.1.3-.1 .1-.1.1-.1.3-.3 .1-.1.3-.5.4-.7 .1-.1.1-.1.2-.4 0-.2.1-.5.2-.9 0-.3 0-.7 0-.9z" fill-rule="evenodd" style="fill:var(--tr-coin-ink,#6B4E23)" fill="#6B4E23"/><path d="M-.7 2.3c0 0 0 .1.1.2 0 .1 0 .1.2.3 .1.1.3.4.5.6 .1.1.1.1.3.2 .1.2.4.3.6.5 .2.1.6.3.7.3 .2.1.3.1.4.1 .1.1.2.1.3.1 .2-.1.2-.1.4-.1 .1-.1.4-.2.5-.2 .1-.1.1-.1.1-.1 0-.1.2-.1 0-.1-.2-.1-.7-.1-.9-.1-.2 0-.1 0-.3-.1-.1 0-.4-.2-.8-.4-.4-.3-1.4-1-1.7-1.3-.4-.2-.2 0-.3 0 0 0-.1 0-.1.1z" style="fill:var(--tr-coin-ink,#6B4E23)" fill="#6B4E23"/><path d="M-4.9 -2.8A6 6 0 0 1 .4 -6" fill="none" style="stroke:var(--tr-spec-c,#FFFFFF);stroke-opacity:var(--tr-spec,.7)" stroke-width=".7" stroke-linecap="round" stroke="#FFFFFF" stroke-opacity=".7"/></g>
</svg>
